<mxfile host="app.diagrams.net" modified="2024-03-16T16:18:25.177Z" agent="Mozilla/5.0 (Windows NT 10.0; Win64; x64) AppleWebKit/537.36 (KHTML, like Gecko) Chrome/122.0.0.0 Safari/537.36 Edg/122.0.0.0" etag="0ECcX45EQKey8IdEbCTJ" version="24.0.7" type="github">
  <diagram name="Page-1" id="KRzohJN2fSVcZOZPhYNg">
    <mxGraphModel dx="1103" dy="896" grid="1" gridSize="10" guides="1" tooltips="1" connect="1" arrows="1" fold="1" page="1" pageScale="1" pageWidth="850" pageHeight="1100" math="0" shadow="0">
      <root>
        <mxCell id="0" />
        <mxCell id="1" parent="0" />
        <mxCell id="rdKzeQnJ4lIfUYoJB8Yd-1" value="Zilla 4x12&lt;div&gt;&lt;br&gt;&lt;/div&gt;" style="whiteSpace=wrap;html=1;aspect=fixed;" vertex="1" parent="1">
          <mxGeometry x="270" y="420" width="190" height="190" as="geometry" />
        </mxCell>
        <mxCell id="rdKzeQnJ4lIfUYoJB8Yd-4" style="edgeStyle=orthogonalEdgeStyle;rounded=0;orthogonalLoop=1;jettySize=auto;html=1;exitX=0.5;exitY=1;exitDx=0;exitDy=0;entryX=0.5;entryY=0;entryDx=0;entryDy=0;" edge="1" parent="1" source="rdKzeQnJ4lIfUYoJB8Yd-2" target="rdKzeQnJ4lIfUYoJB8Yd-1">
          <mxGeometry relative="1" as="geometry" />
        </mxCell>
        <mxCell id="rdKzeQnJ4lIfUYoJB8Yd-7" value="8ohm speaker out" style="edgeLabel;html=1;align=center;verticalAlign=middle;resizable=0;points=[];" vertex="1" connectable="0" parent="rdKzeQnJ4lIfUYoJB8Yd-4">
          <mxGeometry x="0.1029" relative="1" as="geometry">
            <mxPoint y="-4" as="offset" />
          </mxGeometry>
        </mxCell>
        <mxCell id="rdKzeQnJ4lIfUYoJB8Yd-2" value="Fryette PS2-A" style="rounded=0;whiteSpace=wrap;html=1;" vertex="1" parent="1">
          <mxGeometry x="270" y="310" width="190" height="60" as="geometry" />
        </mxCell>
        <mxCell id="rdKzeQnJ4lIfUYoJB8Yd-5" style="edgeStyle=orthogonalEdgeStyle;rounded=0;orthogonalLoop=1;jettySize=auto;html=1;exitX=0.5;exitY=1;exitDx=0;exitDy=0;entryX=0.5;entryY=0;entryDx=0;entryDy=0;" edge="1" parent="1" source="rdKzeQnJ4lIfUYoJB8Yd-3" target="rdKzeQnJ4lIfUYoJB8Yd-2">
          <mxGeometry relative="1" as="geometry" />
        </mxCell>
        <mxCell id="rdKzeQnJ4lIfUYoJB8Yd-6" value="8ohm speaker out" style="edgeLabel;html=1;align=center;verticalAlign=middle;resizable=0;points=[];" vertex="1" connectable="0" parent="rdKzeQnJ4lIfUYoJB8Yd-5">
          <mxGeometry x="-0.1371" relative="1" as="geometry">
            <mxPoint as="offset" />
          </mxGeometry>
        </mxCell>
        <mxCell id="rdKzeQnJ4lIfUYoJB8Yd-3" value="Ceriatone Molecular 50" style="rounded=0;whiteSpace=wrap;html=1;" vertex="1" parent="1">
          <mxGeometry x="270" y="200" width="190" height="60" as="geometry" />
        </mxCell>
        <mxCell id="rdKzeQnJ4lIfUYoJB8Yd-15" style="edgeStyle=orthogonalEdgeStyle;rounded=0;orthogonalLoop=1;jettySize=auto;html=1;entryX=1;entryY=0.75;entryDx=0;entryDy=0;fillColor=#dae8fc;strokeColor=#6c8ebf;" edge="1" parent="1" source="rdKzeQnJ4lIfUYoJB8Yd-10" target="rdKzeQnJ4lIfUYoJB8Yd-11">
          <mxGeometry relative="1" as="geometry">
            <Array as="points">
              <mxPoint x="695" y="825" />
            </Array>
          </mxGeometry>
        </mxCell>
        <mxCell id="rdKzeQnJ4lIfUYoJB8Yd-16" value="Key Input" style="edgeLabel;html=1;align=center;verticalAlign=middle;resizable=0;points=[];" vertex="1" connectable="0" parent="rdKzeQnJ4lIfUYoJB8Yd-15">
          <mxGeometry x="0.7079" y="1" relative="1" as="geometry">
            <mxPoint as="offset" />
          </mxGeometry>
        </mxCell>
        <mxCell id="rdKzeQnJ4lIfUYoJB8Yd-10" value="Guitar" style="shape=actor;whiteSpace=wrap;html=1;" vertex="1" parent="1">
          <mxGeometry x="640" y="320" width="110" height="160" as="geometry" />
        </mxCell>
        <mxCell id="rdKzeQnJ4lIfUYoJB8Yd-17" style="edgeStyle=orthogonalEdgeStyle;rounded=0;orthogonalLoop=1;jettySize=auto;html=1;entryX=1;entryY=0.5;entryDx=0;entryDy=0;exitX=1;exitY=0.5;exitDx=0;exitDy=0;fillColor=#dae8fc;strokeColor=#6c8ebf;" edge="1" parent="1" source="rdKzeQnJ4lIfUYoJB8Yd-11" target="rdKzeQnJ4lIfUYoJB8Yd-12">
          <mxGeometry relative="1" as="geometry">
            <Array as="points">
              <mxPoint x="660" y="800" />
              <mxPoint x="660" y="720" />
              <mxPoint x="420" y="720" />
              <mxPoint x="420" y="800" />
            </Array>
          </mxGeometry>
        </mxCell>
        <mxCell id="rdKzeQnJ4lIfUYoJB8Yd-20" value="Key Out" style="edgeLabel;html=1;align=center;verticalAlign=middle;resizable=0;points=[];" vertex="1" connectable="0" parent="rdKzeQnJ4lIfUYoJB8Yd-17">
          <mxGeometry x="-0.8349" y="2" relative="1" as="geometry">
            <mxPoint as="offset" />
          </mxGeometry>
        </mxCell>
        <mxCell id="rdKzeQnJ4lIfUYoJB8Yd-21" value="Pre Input" style="edgeLabel;html=1;align=center;verticalAlign=middle;resizable=0;points=[];" vertex="1" connectable="0" parent="rdKzeQnJ4lIfUYoJB8Yd-17">
          <mxGeometry x="0.8979" relative="1" as="geometry">
            <mxPoint x="12" as="offset" />
          </mxGeometry>
        </mxCell>
        <mxCell id="rdKzeQnJ4lIfUYoJB8Yd-25" style="edgeStyle=orthogonalEdgeStyle;rounded=0;orthogonalLoop=1;jettySize=auto;html=1;entryX=1;entryY=0.5;entryDx=0;entryDy=0;fillColor=#dae8fc;strokeColor=#6c8ebf;" edge="1" parent="1" source="rdKzeQnJ4lIfUYoJB8Yd-11" target="rdKzeQnJ4lIfUYoJB8Yd-3">
          <mxGeometry relative="1" as="geometry">
            <Array as="points">
              <mxPoint x="540" y="230" />
            </Array>
          </mxGeometry>
        </mxCell>
        <mxCell id="rdKzeQnJ4lIfUYoJB8Yd-26" value="Amp Input" style="edgeLabel;html=1;align=center;verticalAlign=middle;resizable=0;points=[];" vertex="1" connectable="0" parent="rdKzeQnJ4lIfUYoJB8Yd-25">
          <mxGeometry x="-0.0642" y="2" relative="1" as="geometry">
            <mxPoint as="offset" />
          </mxGeometry>
        </mxCell>
        <mxCell id="rdKzeQnJ4lIfUYoJB8Yd-11" value="Guptech MWAC&lt;div&gt;Noise Gate&lt;/div&gt;" style="rounded=1;whiteSpace=wrap;html=1;absoluteArcSize=1;arcSize=14;strokeWidth=2;fillColor=#dae8fc;strokeColor=#6c8ebf;" vertex="1" parent="1">
          <mxGeometry x="480" y="760" width="100" height="100" as="geometry" />
        </mxCell>
        <mxCell id="rdKzeQnJ4lIfUYoJB8Yd-22" style="edgeStyle=orthogonalEdgeStyle;rounded=0;orthogonalLoop=1;jettySize=auto;html=1;entryX=1;entryY=0.5;entryDx=0;entryDy=0;fillColor=#dae8fc;strokeColor=#6c8ebf;" edge="1" parent="1" source="rdKzeQnJ4lIfUYoJB8Yd-12" target="rdKzeQnJ4lIfUYoJB8Yd-13">
          <mxGeometry relative="1" as="geometry" />
        </mxCell>
        <mxCell id="rdKzeQnJ4lIfUYoJB8Yd-35" value="Pre Out" style="edgeLabel;html=1;align=center;verticalAlign=middle;resizable=0;points=[];" vertex="1" connectable="0" parent="rdKzeQnJ4lIfUYoJB8Yd-22">
          <mxGeometry x="0.0095" y="2" relative="1" as="geometry">
            <mxPoint as="offset" />
          </mxGeometry>
        </mxCell>
        <mxCell id="rdKzeQnJ4lIfUYoJB8Yd-31" style="edgeStyle=orthogonalEdgeStyle;rounded=0;orthogonalLoop=1;jettySize=auto;html=1;entryX=1;entryY=0.5;entryDx=0;entryDy=0;fillColor=#f8cecc;strokeColor=#b85450;" edge="1" parent="1" source="rdKzeQnJ4lIfUYoJB8Yd-12" target="rdKzeQnJ4lIfUYoJB8Yd-14">
          <mxGeometry relative="1" as="geometry">
            <Array as="points">
              <mxPoint x="300" y="730" />
              <mxPoint x="160" y="730" />
              <mxPoint x="160" y="510" />
            </Array>
          </mxGeometry>
        </mxCell>
        <mxCell id="rdKzeQnJ4lIfUYoJB8Yd-32" value="Post Out" style="edgeLabel;html=1;align=center;verticalAlign=middle;resizable=0;points=[];" vertex="1" connectable="0" parent="rdKzeQnJ4lIfUYoJB8Yd-31">
          <mxGeometry x="-0.5052" y="1" relative="1" as="geometry">
            <mxPoint as="offset" />
          </mxGeometry>
        </mxCell>
        <mxCell id="rdKzeQnJ4lIfUYoJB8Yd-12" value="Wampler Terraform&lt;div&gt;Pre/Post Mode&lt;/div&gt;" style="rounded=1;whiteSpace=wrap;html=1;absoluteArcSize=1;arcSize=14;strokeWidth=2;fillColor=#e1d5e7;strokeColor=#9673a6;" vertex="1" parent="1">
          <mxGeometry x="250" y="750" width="100" height="100" as="geometry" />
        </mxCell>
        <mxCell id="rdKzeQnJ4lIfUYoJB8Yd-23" style="edgeStyle=orthogonalEdgeStyle;rounded=0;orthogonalLoop=1;jettySize=auto;html=1;exitX=0;exitY=0.5;exitDx=0;exitDy=0;entryX=0.25;entryY=0;entryDx=0;entryDy=0;fillColor=#dae8fc;strokeColor=#6c8ebf;" edge="1" parent="1" source="rdKzeQnJ4lIfUYoJB8Yd-13" target="rdKzeQnJ4lIfUYoJB8Yd-11">
          <mxGeometry relative="1" as="geometry">
            <Array as="points">
              <mxPoint x="40" y="800" />
              <mxPoint x="40" y="670" />
              <mxPoint x="505" y="670" />
            </Array>
          </mxGeometry>
        </mxCell>
        <mxCell id="rdKzeQnJ4lIfUYoJB8Yd-24" value="Gate Input" style="edgeLabel;html=1;align=center;verticalAlign=middle;resizable=0;points=[];" vertex="1" connectable="0" parent="rdKzeQnJ4lIfUYoJB8Yd-23">
          <mxGeometry x="0.0952" relative="1" as="geometry">
            <mxPoint x="224" y="70" as="offset" />
          </mxGeometry>
        </mxCell>
        <mxCell id="rdKzeQnJ4lIfUYoJB8Yd-27" value="Overdrive Out" style="edgeLabel;html=1;align=center;verticalAlign=middle;resizable=0;points=[];" vertex="1" connectable="0" parent="rdKzeQnJ4lIfUYoJB8Yd-23">
          <mxGeometry x="-0.7576" relative="1" as="geometry">
            <mxPoint as="offset" />
          </mxGeometry>
        </mxCell>
        <mxCell id="rdKzeQnJ4lIfUYoJB8Yd-13" value="BluesBreaker" style="rounded=1;whiteSpace=wrap;html=1;absoluteArcSize=1;arcSize=14;strokeWidth=2;fillColor=#dae8fc;strokeColor=#6c8ebf;" vertex="1" parent="1">
          <mxGeometry x="60" y="750" width="100" height="100" as="geometry" />
        </mxCell>
        <mxCell id="rdKzeQnJ4lIfUYoJB8Yd-33" style="edgeStyle=orthogonalEdgeStyle;rounded=0;orthogonalLoop=1;jettySize=auto;html=1;entryX=0;entryY=0.25;entryDx=0;entryDy=0;fillColor=#f8cecc;strokeColor=#b85450;" edge="1" parent="1" source="rdKzeQnJ4lIfUYoJB8Yd-14" target="rdKzeQnJ4lIfUYoJB8Yd-2">
          <mxGeometry relative="1" as="geometry">
            <Array as="points">
              <mxPoint x="170" y="480" />
              <mxPoint x="170" y="325" />
            </Array>
          </mxGeometry>
        </mxCell>
        <mxCell id="rdKzeQnJ4lIfUYoJB8Yd-34" value="FX Return" style="edgeLabel;html=1;align=center;verticalAlign=middle;resizable=0;points=[];" vertex="1" connectable="0" parent="rdKzeQnJ4lIfUYoJB8Yd-33">
          <mxGeometry x="0.6988" y="-1" relative="1" as="geometry">
            <mxPoint as="offset" />
          </mxGeometry>
        </mxCell>
        <mxCell id="rdKzeQnJ4lIfUYoJB8Yd-14" value="Source Audio&lt;div&gt;Collider&lt;/div&gt;" style="rounded=1;whiteSpace=wrap;html=1;absoluteArcSize=1;arcSize=14;strokeWidth=2;fillColor=#f8cecc;strokeColor=#b85450;" vertex="1" parent="1">
          <mxGeometry x="30" y="460" width="100" height="100" as="geometry" />
        </mxCell>
        <mxCell id="rdKzeQnJ4lIfUYoJB8Yd-28" style="edgeStyle=orthogonalEdgeStyle;rounded=0;orthogonalLoop=1;jettySize=auto;html=1;exitX=0;exitY=0.5;exitDx=0;exitDy=0;entryX=0.641;entryY=-0.009;entryDx=0;entryDy=0;entryPerimeter=0;fillColor=#f8cecc;strokeColor=#b85450;" edge="1" parent="1" source="rdKzeQnJ4lIfUYoJB8Yd-2" target="rdKzeQnJ4lIfUYoJB8Yd-12">
          <mxGeometry relative="1" as="geometry">
            <Array as="points">
              <mxPoint x="200" y="340" />
              <mxPoint x="200" y="710" />
              <mxPoint x="314" y="710" />
            </Array>
          </mxGeometry>
        </mxCell>
        <mxCell id="rdKzeQnJ4lIfUYoJB8Yd-29" value="FX Send" style="edgeLabel;html=1;align=center;verticalAlign=middle;resizable=0;points=[];" vertex="1" connectable="0" parent="rdKzeQnJ4lIfUYoJB8Yd-28">
          <mxGeometry x="-0.8806" y="-1" relative="1" as="geometry">
            <mxPoint as="offset" />
          </mxGeometry>
        </mxCell>
        <mxCell id="rdKzeQnJ4lIfUYoJB8Yd-30" value="Post In" style="edgeLabel;html=1;align=center;verticalAlign=middle;resizable=0;points=[];" vertex="1" connectable="0" parent="rdKzeQnJ4lIfUYoJB8Yd-28">
          <mxGeometry x="0.7349" y="3" relative="1" as="geometry">
            <mxPoint as="offset" />
          </mxGeometry>
        </mxCell>
        <mxCell id="rdKzeQnJ4lIfUYoJB8Yd-38" style="edgeStyle=orthogonalEdgeStyle;rounded=0;orthogonalLoop=1;jettySize=auto;html=1;entryX=0.5;entryY=1;entryDx=0;entryDy=0;dashed=1;" edge="1" parent="1" source="rdKzeQnJ4lIfUYoJB8Yd-36" target="rdKzeQnJ4lIfUYoJB8Yd-11">
          <mxGeometry relative="1" as="geometry">
            <Array as="points">
              <mxPoint x="530" y="960" />
              <mxPoint x="530" y="960" />
            </Array>
          </mxGeometry>
        </mxCell>
        <mxCell id="rdKzeQnJ4lIfUYoJB8Yd-45" value="Isolated power" style="edgeLabel;html=1;align=center;verticalAlign=middle;resizable=0;points=[];" vertex="1" connectable="0" parent="rdKzeQnJ4lIfUYoJB8Yd-38">
          <mxGeometry x="0.0119" y="4" relative="1" as="geometry">
            <mxPoint as="offset" />
          </mxGeometry>
        </mxCell>
        <mxCell id="rdKzeQnJ4lIfUYoJB8Yd-40" style="edgeStyle=orthogonalEdgeStyle;rounded=0;orthogonalLoop=1;jettySize=auto;html=1;entryX=0.5;entryY=1;entryDx=0;entryDy=0;dashed=1;" edge="1" parent="1" source="rdKzeQnJ4lIfUYoJB8Yd-36" target="rdKzeQnJ4lIfUYoJB8Yd-13">
          <mxGeometry relative="1" as="geometry" />
        </mxCell>
        <mxCell id="rdKzeQnJ4lIfUYoJB8Yd-43" value="Isolated power" style="edgeLabel;html=1;align=center;verticalAlign=middle;resizable=0;points=[];" vertex="1" connectable="0" parent="rdKzeQnJ4lIfUYoJB8Yd-40">
          <mxGeometry x="-0.3568" y="-2" relative="1" as="geometry">
            <mxPoint as="offset" />
          </mxGeometry>
        </mxCell>
        <mxCell id="rdKzeQnJ4lIfUYoJB8Yd-41" style="edgeStyle=orthogonalEdgeStyle;rounded=0;orthogonalLoop=1;jettySize=auto;html=1;entryX=0;entryY=0.5;entryDx=0;entryDy=0;dashed=1;" edge="1" parent="1" source="rdKzeQnJ4lIfUYoJB8Yd-36" target="rdKzeQnJ4lIfUYoJB8Yd-14">
          <mxGeometry relative="1" as="geometry">
            <Array as="points">
              <mxPoint x="445" y="1060" />
              <mxPoint x="10" y="1060" />
              <mxPoint x="10" y="510" />
            </Array>
          </mxGeometry>
        </mxCell>
        <mxCell id="rdKzeQnJ4lIfUYoJB8Yd-42" value="Isolated power" style="edgeLabel;html=1;align=center;verticalAlign=middle;resizable=0;points=[];" vertex="1" connectable="0" parent="rdKzeQnJ4lIfUYoJB8Yd-41">
          <mxGeometry x="-0.5367" y="1" relative="1" as="geometry">
            <mxPoint as="offset" />
          </mxGeometry>
        </mxCell>
        <mxCell id="rdKzeQnJ4lIfUYoJB8Yd-36" value="Ciosk Sol" style="strokeWidth=2;html=1;shape=mxgraph.flowchart.direct_data;whiteSpace=wrap;" vertex="1" parent="1">
          <mxGeometry x="340" y="980" width="210" height="60" as="geometry" />
        </mxCell>
        <mxCell id="rdKzeQnJ4lIfUYoJB8Yd-39" style="edgeStyle=orthogonalEdgeStyle;rounded=0;orthogonalLoop=1;jettySize=auto;html=1;entryX=0.641;entryY=1.026;entryDx=0;entryDy=0;entryPerimeter=0;dashed=1;" edge="1" parent="1" source="rdKzeQnJ4lIfUYoJB8Yd-36" target="rdKzeQnJ4lIfUYoJB8Yd-12">
          <mxGeometry relative="1" as="geometry" />
        </mxCell>
        <mxCell id="rdKzeQnJ4lIfUYoJB8Yd-44" value="Isolated power" style="edgeLabel;html=1;align=center;verticalAlign=middle;resizable=0;points=[];" vertex="1" connectable="0" parent="rdKzeQnJ4lIfUYoJB8Yd-39">
          <mxGeometry x="0.0099" y="-1" relative="1" as="geometry">
            <mxPoint as="offset" />
          </mxGeometry>
        </mxCell>
        <mxCell id="rdKzeQnJ4lIfUYoJB8Yd-46" value="Furman power block" style="strokeWidth=2;html=1;shape=mxgraph.flowchart.direct_data;whiteSpace=wrap;" vertex="1" parent="1">
          <mxGeometry x="310" y="60" width="220" height="60" as="geometry" />
        </mxCell>
        <mxCell id="rdKzeQnJ4lIfUYoJB8Yd-48" style="edgeStyle=orthogonalEdgeStyle;rounded=0;orthogonalLoop=1;jettySize=auto;html=1;entryX=0.792;entryY=0.029;entryDx=0;entryDy=0;entryPerimeter=0;dashed=1;" edge="1" parent="1" source="rdKzeQnJ4lIfUYoJB8Yd-46" target="rdKzeQnJ4lIfUYoJB8Yd-3">
          <mxGeometry relative="1" as="geometry" />
        </mxCell>
        <mxCell id="rdKzeQnJ4lIfUYoJB8Yd-49" style="edgeStyle=orthogonalEdgeStyle;rounded=0;orthogonalLoop=1;jettySize=auto;html=1;entryX=0.127;entryY=-0.081;entryDx=0;entryDy=0;entryPerimeter=0;dashed=1;" edge="1" parent="1" source="rdKzeQnJ4lIfUYoJB8Yd-46" target="rdKzeQnJ4lIfUYoJB8Yd-2">
          <mxGeometry relative="1" as="geometry">
            <Array as="points">
              <mxPoint x="190" y="90" />
              <mxPoint x="190" y="215" />
              <mxPoint x="240" y="215" />
              <mxPoint x="240" y="290" />
              <mxPoint x="294" y="290" />
            </Array>
          </mxGeometry>
        </mxCell>
        <mxCell id="rdKzeQnJ4lIfUYoJB8Yd-51" style="edgeStyle=orthogonalEdgeStyle;rounded=0;orthogonalLoop=1;jettySize=auto;html=1;exitX=0;exitY=0.5;exitDx=0;exitDy=0;exitPerimeter=0;" edge="1" parent="1" source="rdKzeQnJ4lIfUYoJB8Yd-50" target="rdKzeQnJ4lIfUYoJB8Yd-46">
          <mxGeometry relative="1" as="geometry" />
        </mxCell>
        <mxCell id="rdKzeQnJ4lIfUYoJB8Yd-50" value="Mains 120v" style="strokeWidth=2;html=1;shape=mxgraph.flowchart.decision;whiteSpace=wrap;" vertex="1" parent="1">
          <mxGeometry x="700" y="40" width="100" height="100" as="geometry" />
        </mxCell>
      </root>
    </mxGraphModel>
  </diagram>
</mxfile>
